PathFileType	4	(X/Y/Z)	C:\Users\italobelli\Desktop\GitHub\PTbot_officialCBL\Personal_Results\ABD23_noisy2.trc
DataRate	CameraRate	NumFrames	NumMarkers	Units	OrigDataRate	OrigDataStartFrame	OrigNumFrames
105.444444	105.444444	34	9	m	105.444444	832	950
Frame#	Time		gu		centelbow		EpL		centpxt8		centijc7		ij		ts		aa		ai
			X1	Y1	Z1	X2	Y2	Z2	X3	Y3	Z3	X4	Y4	Z4	X5	Y5	Z5	X6	Y6	Z6	X7	Y7	Z7	X8	Y8	Z8	X9	Y9	Z9

832	7.8809	-0.096191	-0.010207	0.16092	-0.12755	-0.25955	0.1907	-0.12612	-0.25191	0.22198	-0.046816	-0.15316	-0.008669	-0.046816	0.031938	-0.008669	0	0	0	-0.13204	0.024807	0.038514	-0.12912	0.025236	0.15775	-0.14264	-0.088049	0.044467
833	7.8904	-0.096163	-0.010233	0.16093	-0.12735	-0.25941	0.19071	-0.12592	-0.25178	0.22199	-0.046816	-0.15316	-0.008669	-0.046816	0.031938	-0.008669	0	0	0	-0.13206	0.02476	0.038537	-0.12911	0.025183	0.15777	-0.14257	-0.088105	0.044483
834	7.8999	-0.096134	-0.010256	0.16093	-0.12716	-0.25927	0.19072	-0.12573	-0.25164	0.22201	-0.046816	-0.15316	-0.008669	-0.046816	0.031938	-0.008669	0	0	0	-0.13208	0.024714	0.03856	-0.12909	0.025132	0.1578	-0.14251	-0.08816	0.044499
835	7.9094	-0.096104	-0.010278	0.16093	-0.12697	-0.25914	0.19074	-0.12553	-0.25151	0.22202	-0.046816	-0.15316	-0.008669	-0.046816	0.031938	-0.008669	0	0	0	-0.1321	0.024668	0.038583	-0.12908	0.025083	0.15782	-0.14244	-0.088215	0.044516
836	7.9189	-0.096073	-0.010298	0.16093	-0.12678	-0.25901	0.19076	-0.12534	-0.25138	0.22204	-0.046816	-0.15316	-0.008669	-0.046816	0.031938	-0.008669	0	0	0	-0.13212	0.024622	0.038604	-0.12906	0.025037	0.15784	-0.14238	-0.088269	0.044534
837	7.9283	-0.096041	-0.010317	0.16094	-0.1266	-0.25888	0.19078	-0.12515	-0.25125	0.22207	-0.046816	-0.15316	-0.008669	-0.046816	0.031938	-0.008669	0	0	0	-0.13213	0.024576	0.038625	-0.12905	0.024993	0.15786	-0.14232	-0.088322	0.044552
838	7.9378	-0.096006	-0.010333	0.16094	-0.12642	-0.25875	0.19081	-0.12496	-0.25112	0.2221	-0.046816	-0.15316	-0.008669	-0.046816	0.031938	-0.008669	0	0	0	-0.13215	0.024531	0.038645	-0.12903	0.024951	0.15788	-0.14226	-0.088375	0.044571
839	7.9473	-0.095971	-0.010347	0.16094	-0.12624	-0.25863	0.19085	-0.12478	-0.25099	0.22213	-0.046816	-0.15316	-0.008669	-0.046816	0.031938	-0.008669	0	0	0	-0.13217	0.024486	0.038664	-0.12902	0.024913	0.15789	-0.1422	-0.088427	0.044591
840	7.9568	-0.095934	-0.010359	0.16094	-0.12607	-0.25851	0.19088	-0.1246	-0.25087	0.22217	-0.046816	-0.15316	-0.008669	-0.046816	0.031938	-0.008669	0	0	0	-0.13218	0.024442	0.038682	-0.129	0.024877	0.15791	-0.14215	-0.088478	0.044611
841	7.9663	-0.095895	-0.010368	0.16094	-0.1259	-0.2584	0.19093	-0.12442	-0.25075	0.22221	-0.046816	-0.15316	-0.008669	-0.046816	0.031938	-0.008669	0	0	0	-0.1322	0.024398	0.038699	-0.12898	0.024844	0.15792	-0.14209	-0.088528	0.044633
842	7.9758	-0.095854	-0.010376	0.16094	-0.12573	-0.25829	0.19097	-0.12425	-0.25063	0.22225	-0.046816	-0.15316	-0.008669	-0.046816	0.031938	-0.008669	0	0	0	-0.13221	0.024354	0.038715	-0.12896	0.024814	0.15794	-0.14204	-0.088577	0.044655
843	7.9852	-0.095812	-0.010381	0.16094	-0.12558	-0.25818	0.19103	-0.12409	-0.25052	0.22231	-0.046816	-0.15316	-0.008669	-0.046816	0.031938	-0.008669	0	0	0	-0.13222	0.024311	0.03873	-0.12894	0.024788	0.15795	-0.14199	-0.088626	0.044678
844	7.9947	-0.095767	-0.010384	0.16094	-0.12542	-0.25808	0.19108	-0.12393	-0.25041	0.22237	-0.046816	-0.15316	-0.008669	-0.046816	0.031938	-0.008669	0	0	0	-0.13223	0.024269	0.038744	-0.12892	0.024764	0.15796	-0.14195	-0.088673	0.044702
845	8.0042	-0.095721	-0.010384	0.16094	-0.12527	-0.25798	0.19115	-0.12377	-0.2503	0.22243	-0.046816	-0.15316	-0.008669	-0.046816	0.031938	-0.008669	0	0	0	-0.13225	0.024226	0.038757	-0.1289	0.024744	0.15797	-0.1419	-0.08872	0.044727
846	8.0137	-0.095672	-0.010383	0.16094	-0.12513	-0.25788	0.19122	-0.12362	-0.2502	0.2225	-0.046816	-0.15316	-0.008669	-0.046816	0.031938	-0.008669	0	0	0	-0.13226	0.024184	0.038768	-0.12888	0.024727	0.15798	-0.14186	-0.088765	0.044753
847	8.0232	-0.095619	-0.01038	0.16094	-0.12499	-0.25778	0.1913	-0.12347	-0.25009	0.22258	-0.046816	-0.15316	-0.008669	-0.046816	0.031938	-0.008669	0	0	0	-0.13227	0.024143	0.038778	-0.12885	0.024712	0.15799	-0.14182	-0.08881	0.044781
848	8.0327	-0.095562	-0.010377	0.16093	-0.12484	-0.25767	0.19139	-0.12332	-0.24998	0.22266	-0.046816	-0.15316	-0.008669	-0.046816	0.031938	-0.008669	0	0	0	-0.13228	0.024102	0.038787	-0.12882	0.024699	0.158	-0.14178	-0.088854	0.04481
849	8.0421	-0.095503	-0.010372	0.16093	-0.1247	-0.25757	0.19148	-0.12317	-0.24987	0.22276	-0.046816	-0.15316	-0.008669	-0.046816	0.031938	-0.008669	0	0	0	-0.13229	0.024062	0.038795	-0.12879	0.024689	0.158	-0.14174	-0.088897	0.044839
850	8.0516	-0.095441	-0.010366	0.16093	-0.12457	-0.25747	0.19158	-0.12303	-0.24975	0.22285	-0.046816	-0.15316	-0.008669	-0.046816	0.031938	-0.008669	0	0	0	-0.1323	0.024022	0.038801	-0.12876	0.02468	0.15801	-0.1417	-0.08894	0.04487
851	8.0611	-0.095375	-0.010359	0.16092	-0.12443	-0.25736	0.19169	-0.12288	-0.24964	0.22296	-0.046816	-0.15316	-0.008669	-0.046816	0.031938	-0.008669	0	0	0	-0.13231	0.023983	0.038807	-0.12872	0.024673	0.15801	-0.14167	-0.088981	0.044902
852	8.0706	-0.095307	-0.010351	0.16092	-0.12429	-0.25726	0.1918	-0.12274	-0.24952	0.22307	-0.046816	-0.15316	-0.008669	-0.046816	0.031938	-0.008669	0	0	0	-0.13232	0.023944	0.038811	-0.12868	0.024669	0.15801	-0.14163	-0.089022	0.044935
853	8.0801	-0.095236	-0.010342	0.16092	-0.12416	-0.25715	0.19192	-0.12259	-0.24941	0.22319	-0.046816	-0.15316	-0.008669	-0.046816	0.031938	-0.008669	0	0	0	-0.13233	0.023905	0.038814	-0.12864	0.024666	0.15801	-0.1416	-0.089063	0.044969
854	8.0896	-0.095163	-0.010332	0.16091	-0.12402	-0.25704	0.19204	-0.12245	-0.24929	0.22331	-0.046816	-0.15316	-0.008669	-0.046816	0.031938	-0.008669	0	0	0	-0.13234	0.023867	0.038817	-0.1286	0.024665	0.15801	-0.14157	-0.089102	0.045004
855	8.0991	-0.095087	-0.010321	0.16091	-0.12389	-0.25694	0.19217	-0.12231	-0.24918	0.22344	-0.046816	-0.15316	-0.008669	-0.046816	0.031938	-0.008669	0	0	0	-0.13235	0.023829	0.038818	-0.12856	0.024665	0.15801	-0.14153	-0.089141	0.04504
856	8.1085	-0.095008	-0.010309	0.1609	-0.12376	-0.25683	0.19231	-0.12217	-0.24906	0.22357	-0.046816	-0.15316	-0.008669	-0.046816	0.031938	-0.008669	0	0	0	-0.13236	0.023792	0.038818	-0.12851	0.024667	0.15801	-0.1415	-0.08918	0.045077
857	8.118	-0.094928	-0.010297	0.16089	-0.12363	-0.25672	0.19245	-0.12203	-0.24894	0.22371	-0.046816	-0.15316	-0.008669	-0.046816	0.031938	-0.008669	0	0	0	-0.13237	0.023755	0.038818	-0.12847	0.024671	0.158	-0.14147	-0.089218	0.045115
858	8.1275	-0.094845	-0.010284	0.16089	-0.1235	-0.25661	0.1926	-0.1219	-0.24882	0.22385	-0.046816	-0.15316	-0.008669	-0.046816	0.031938	-0.008669	0	0	0	-0.13238	0.023718	0.038817	-0.12842	0.024676	0.158	-0.14145	-0.089255	0.045153
859	8.137	-0.09476	-0.01027	0.16088	-0.12337	-0.2565	0.19275	-0.12176	-0.2487	0.224	-0.046816	-0.15316	-0.008669	-0.046816	0.031938	-0.008669	0	0	0	-0.13239	0.023681	0.038815	-0.12837	0.024682	0.158	-0.14142	-0.089292	0.045192
860	8.1465	-0.094674	-0.010256	0.16087	-0.12324	-0.2564	0.19291	-0.12162	-0.24858	0.22416	-0.046816	-0.15316	-0.008669	-0.046816	0.031938	-0.008669	0	0	0	-0.1324	0.023645	0.038813	-0.12831	0.024689	0.15799	-0.14139	-0.089329	0.045232
861	8.156	-0.094585	-0.010241	0.16087	-0.12312	-0.25629	0.19307	-0.12149	-0.24846	0.22431	-0.046816	-0.15316	-0.008669	-0.046816	0.031938	-0.008669	0	0	0	-0.13241	0.023609	0.03881	-0.12826	0.024698	0.15798	-0.14137	-0.089365	0.045273
862	8.1654	-0.094495	-0.010226	0.16086	-0.12299	-0.25618	0.19323	-0.12135	-0.24834	0.22447	-0.046816	-0.15316	-0.008669	-0.046816	0.031938	-0.008669	0	0	0	-0.13242	0.023573	0.038806	-0.1282	0.024707	0.15798	-0.14134	-0.0894	0.045314
863	8.1749	-0.094403	-0.01021	0.16085	-0.12286	-0.25607	0.1934	-0.12121	-0.24822	0.22464	-0.046816	-0.15316	-0.008669	-0.046816	0.031938	-0.008669	0	0	0	-0.13243	0.023537	0.038802	-0.12815	0.024717	0.15797	-0.14132	-0.089436	0.045356
864	8.1844	-0.09431	-0.010194	0.16085	-0.12273	-0.25596	0.19358	-0.12108	-0.24811	0.22481	-0.046816	-0.15316	-0.008669	-0.046816	0.031938	-0.008669	0	0	0	-0.13243	0.023502	0.038797	-0.12809	0.024729	0.15796	-0.14129	-0.089471	0.045398
865	8.1939	-0.094216	-0.010177	0.16084	-0.12261	-0.25585	0.19375	-0.12094	-0.24799	0.22498	-0.046816	-0.15316	-0.008669	-0.046816	0.031938	-0.008669	0	0	0	-0.13244	0.023467	0.038792	-0.12803	0.024741	0.15795	-0.14127	-0.089505	0.045441
